<svg width="12" height="8" viewBox="0 0 12 8" fill="none" xmlns="http://www.w3.org/2000/svg">
<path d="M0.519475 3.41888H10.2265L7.91029 1.06087C7.70737 0.854425 7.70737 0.519537 7.91029 0.313126C8.11321 0.106562 8.44219 0.106562 8.6448 0.313126L11.8478 3.57375C12.0507 3.78019 12.0507 4.11511 11.8478 4.32149L8.6448 7.58226C8.54337 7.68557 8.41045 7.73715 8.27755 7.73715C8.14465 7.73715 8.01172 7.68557 7.91029 7.58226C7.70737 7.37582 7.70737 7.04093 7.91029 6.83455L10.2265 4.47641H0.519475C0.232618 4.47641 0 4.23964 0 3.94763C0 3.65562 0.232588 3.41888 0.519475 3.41888Z" fill="black"/>
</svg>
