<svg width="26" height="26" viewBox="0 0 26 26" fill="none" xmlns="http://www.w3.org/2000/svg">
<path d="M16.2759 5.13086H9.3787C7.03644 5.13086 5.13086 7.03653 5.13086 9.37879V16.276C5.13086 18.6184 7.03644 20.5239 9.3787 20.5239H16.2759C18.6184 20.5239 20.5239 18.6183 20.5239 16.276V9.37879C20.524 7.03653 18.6184 5.13086 16.2759 5.13086ZM19.1583 16.276C19.1583 17.8653 17.8653 19.1582 16.276 19.1582H9.3787C7.78952 19.1583 6.49661 17.8653 6.49661 16.276V9.37879C6.49661 7.78961 7.78952 6.49661 9.3787 6.49661H16.2759C17.8652 6.49661 19.1582 7.78961 19.1582 9.37879V16.276H19.1583Z" fill="black"/>
<path d="M12.8277 8.86084C10.6406 8.86084 8.86133 10.6401 8.86133 12.8272C8.86133 15.0143 10.6406 16.7935 12.8277 16.7935C15.0148 16.7935 16.7941 15.0143 16.7941 12.8272C16.7941 10.6401 15.0148 8.86084 12.8277 8.86084ZM12.8277 15.4276C11.3938 15.4276 10.2271 14.2611 10.2271 12.8272C10.2271 11.3931 11.3937 10.2265 12.8277 10.2265C14.2618 10.2265 15.4284 11.3931 15.4284 12.8272C15.4284 14.2611 14.2617 15.4276 12.8277 15.4276Z" fill="black"/>
<path d="M16.9605 7.70312C16.6974 7.70312 16.4389 7.80965 16.2531 7.99631C16.0663 8.18205 15.959 8.44063 15.959 8.70467C15.959 8.9679 16.0664 9.22639 16.2531 9.41304C16.4388 9.59878 16.6974 9.70622 16.9605 9.70622C17.2246 9.70622 17.4823 9.59878 17.6689 9.41304C17.8556 9.22639 17.9621 8.96781 17.9621 8.70467C17.9621 8.44063 17.8556 8.18205 17.6689 7.99631C17.4832 7.80965 17.2246 7.70312 16.9605 7.70312Z" fill="black"/>
</svg>
