<svg width="56" height="26" viewBox="0 0 56 26" fill="none" xmlns="http://www.w3.org/2000/svg">
<path d="M9.90747 3.60094C9.90747 3.04306 9.85676 2.58661 9.80604 2.33303C9.70461 1.72443 9.40031 1.16655 8.89314 0.710097C8.38597 0.253647 7.82809 0.0507812 7.11806 0.0507812C6.40803 0.0507812 5.74871 0.304364 5.24155 0.81153C4.68366 0.304364 4.07506 0.0507812 3.36503 0.0507812C2.70572 0.0507812 2.0464 0.304364 1.58995 0.710097C1.1335 1.11583 0.778485 1.623 0.626335 2.33303C0.575619 2.63733 0.524902 3.04306 0.524902 3.60094V7.96257C0.524902 8.21615 0.727769 8.31759 0.879918 8.31759C1.1335 8.31759 1.23493 8.11472 1.23493 7.96257V3.44879C1.23493 2.63733 1.38708 1.97801 1.7421 1.47085C2.09712 0.912963 2.655 0.659381 3.41575 0.659381C3.97363 0.659381 4.43008 0.862246 4.83581 1.26798C4.4808 1.87658 4.32865 2.53589 4.32865 3.44879V7.91185C4.32865 8.11472 4.4808 8.26687 4.68366 8.26687C4.93725 8.26687 5.03868 8.064 5.03868 7.91185V3.39808C5.03868 2.73876 5.14011 2.23159 5.29226 1.87658C5.44441 2.28231 5.54585 2.89091 5.54585 3.60094V7.96257C5.54585 8.16544 5.69799 8.31759 5.90086 8.31759C6.15444 8.31759 6.25588 8.11472 6.25588 7.96257V3.29664C6.25588 2.38374 6.10373 1.72443 5.74871 1.21726C6.10373 0.862246 6.56018 0.659381 7.11806 0.659381C7.62523 0.659381 8.08168 0.811529 8.43669 1.11583C8.79171 1.36941 9.04529 1.77514 9.19744 2.28231C9.29887 2.58661 9.29887 2.94163 9.29887 3.44879V7.96257C9.29887 8.16544 9.45102 8.31759 9.65389 8.31759C9.90747 8.31759 10.0089 8.11472 10.0089 7.96257L9.95819 7.70899V3.60094H9.90747Z" fill="black"/>
<path d="M18.1236 1.31876C17.3122 0.507296 16.2978 0.101562 15.1314 0.101562C13.9649 0.101562 12.9505 0.507296 12.1391 1.31876C11.3276 2.13023 10.9219 3.14456 10.9219 4.31104C10.9219 5.47752 11.3276 6.49185 12.1898 7.30332C13.052 8.11479 14.0663 8.52052 15.2328 8.52052C16.095 8.52052 16.9064 8.26694 17.5657 7.81049V7.91192C17.5657 8.26693 17.7686 8.36837 17.9208 8.36837C18.0729 8.36837 18.2758 8.21622 18.2758 7.91192V7.2526C19.0872 6.39042 19.493 5.42681 19.493 4.31104C19.3915 3.09384 18.9351 2.07951 18.1236 1.31876ZM17.4643 4.36176V6.99902C16.7543 7.60762 15.9935 7.91192 15.1314 7.91192C14.1677 7.91192 13.3056 7.5569 12.6462 6.84687C11.9362 6.18755 11.6319 5.37609 11.6319 4.36176C11.6319 3.34743 11.9869 2.53596 12.697 1.82593C13.407 1.1159 14.2185 0.760878 15.2328 0.760878C16.1964 0.760878 17.0586 1.1159 17.7179 1.82593C18.3772 2.53596 18.7829 3.34742 18.7829 4.31104C18.7829 5.02107 18.5801 5.62967 18.2251 6.18755V4.36176C18.1236 3.85459 17.4643 3.85459 17.4643 4.36176Z" fill="black"/>
<path d="M23.9561 8.52058C24.9197 8.52058 25.8326 8.21628 26.644 7.55697C26.8469 7.40482 26.9991 7.30338 27.1005 7.15123H27.1512V7.10052C27.2019 7.0498 27.2019 6.99908 27.2019 6.89765C27.2019 6.7455 27.1005 6.59335 26.8976 6.59335H26.6948L26.644 6.69478V6.79622C26.289 7.10052 25.8833 7.40482 25.4776 7.60768C25.0211 7.81055 24.5139 7.9627 24.0575 7.9627C23.0432 7.9627 22.2317 7.60768 21.5724 6.89765C20.8623 6.18762 20.5073 5.37615 20.5073 4.36182C20.5073 3.39821 20.8623 2.53602 21.5724 1.87671C22.2317 1.16667 23.0432 0.862375 24.0575 0.862375C25.0211 0.862375 25.8833 1.21739 26.5933 1.92742L26.7455 2.02886H26.9483L26.9991 1.97814C27.1005 1.92742 27.1512 1.82599 27.1512 1.72456V1.62312L27.1005 1.57241C27.1005 1.57241 27.1005 1.52169 27.0498 1.52169C26.9991 1.47097 26.9991 1.42026 26.9483 1.42026C26.1876 0.608793 25.1733 0.152344 23.9561 0.152344C22.7896 0.152344 21.7752 0.558075 20.9638 1.36954C20.1523 2.18101 19.7466 3.19534 19.7466 4.36182C19.7466 5.47759 20.1523 6.49192 20.9638 7.3541C21.826 8.11485 22.8403 8.52058 23.9561 8.52058Z" fill="black"/>
<path d="M34.4034 1.31876C33.592 0.507296 32.5776 0.101562 31.4111 0.101562C30.2447 0.101562 29.2303 0.507296 28.4189 1.31876C27.6074 2.13023 27.2017 3.14456 27.2017 4.31104C27.2017 5.47752 27.6074 6.49185 28.4189 7.30332C29.281 8.11479 30.2954 8.52052 31.4619 8.52052C32.324 8.52052 33.1355 8.26694 33.7948 7.81049V7.91192C33.7948 8.26693 33.9977 8.36837 34.1498 8.36837C34.302 8.36837 34.5048 8.21622 34.5048 7.91192V7.2526C35.3163 6.39042 35.722 5.42681 35.722 4.31104C35.6713 3.04312 35.2656 2.07951 34.4034 1.31876ZM33.7441 4.36176V6.99902C33.0341 7.60762 32.2733 7.91192 31.4111 7.91192C30.4475 7.91192 29.5853 7.5569 28.8753 6.84687C28.1653 6.18755 27.861 5.37609 27.861 4.36176C27.861 3.34743 28.216 2.53596 28.926 1.82593C29.6361 1.1159 30.4475 0.760878 31.4619 0.760878C32.4255 0.760878 33.2877 1.1159 33.947 1.82593C34.657 2.53596 35.012 3.34742 35.012 4.31104C35.012 5.02107 34.8091 5.68039 34.4541 6.23827V4.41247C34.4034 3.85459 33.7441 3.85459 33.7441 4.36176Z" fill="black"/>
<path d="M36.7369 8.36801C36.9904 8.36801 37.0919 8.16514 37.0919 8.01299V4.71641C37.0919 3.85423 37.1426 3.34707 37.244 2.99205C37.3962 2.43417 37.7005 1.97772 38.1062 1.6227C38.5119 1.26768 38.9684 1.06482 39.4755 0.91267C39.7291 0.91267 39.8306 0.709803 39.8306 0.557653C39.8306 0.30407 39.6784 0.253353 39.577 0.202637H39.5263H39.4755C39.222 0.202637 38.9177 0.304069 38.5626 0.506936C37.954 0.811235 37.4469 1.21697 37.0919 1.77485C37.0919 1.47055 37.0919 1.06482 37.0919 0.608369C37.0919 0.101203 36.3818 0.101203 36.3818 0.608369V8.01299C36.3818 8.21586 36.534 8.36801 36.7369 8.36801Z" fill="black"/>
<path d="M47.1842 1.31876C46.3727 0.507296 45.3584 0.101562 44.1919 0.101562C43.0254 0.101562 42.0111 0.507296 41.1996 1.31876C40.3882 2.13023 39.9824 3.14456 39.9824 4.31104C39.9824 5.47752 40.3882 6.49185 41.1996 7.30332C42.0618 8.11479 43.0761 8.52052 44.2426 8.52052C45.4091 8.52052 46.4234 8.11479 47.2349 7.2526C48.0464 6.39042 48.4521 5.37609 48.4521 4.20961C48.4521 3.09384 48.0464 2.07951 47.1842 1.31876ZM44.1919 0.760878C45.1555 0.760878 46.0177 1.1159 46.677 1.82593C47.387 2.53596 47.7421 3.34742 47.7421 4.31104C47.7421 5.32537 47.387 6.18755 46.6263 6.84687C45.967 7.5569 45.1555 7.8612 44.1412 7.8612C43.1776 7.8612 42.3154 7.50619 41.6561 6.79615C40.946 6.08612 40.591 5.27465 40.591 4.31104C40.591 3.29671 40.946 2.48524 41.6561 1.77521C42.3154 1.06518 43.1776 0.760878 44.1919 0.760878Z" fill="black"/>
<path d="M55.0451 2.23153C54.9436 1.62293 54.6393 1.11577 54.0815 0.659317C53.5743 0.253585 52.9657 0 52.3064 0C51.7992 0 51.3428 0.101434 50.937 0.355017C50.6327 0.557883 50.3284 0.76075 50.1256 1.06505V0.557884C50.1256 0.0507178 49.4155 0.0507178 49.4155 0.557884V7.96251C49.4155 8.21609 49.6184 8.31752 49.7705 8.31752C50.0241 8.31752 50.1256 8.11466 50.1256 7.96251V3.75303C50.1256 3.29658 50.1256 2.89085 50.1763 2.68798C50.2777 2.07938 50.4806 1.62293 50.8356 1.26791C51.2413 0.912899 51.7485 0.710033 52.2557 0.710033C52.6614 0.710033 53.0671 0.811465 53.3714 1.01433C53.8279 1.26791 54.1322 1.67365 54.2336 2.18081C54.335 2.48511 54.335 3.043 54.335 3.75303V7.96251C54.335 8.16537 54.4872 8.31752 54.6901 8.31752C54.7915 8.31752 54.8929 8.26681 54.9436 8.21609H55.0958V3.39801C55.1465 2.94156 55.0958 2.53583 55.0451 2.23153Z" fill="black"/>
<path d="M16.3993 18.106C16.0443 18.106 15.9935 18.3088 15.9935 18.461C15.9935 18.7146 16.1964 18.816 16.3486 18.816C16.7543 18.816 17.0586 18.9174 17.4136 19.1203C18.0729 19.4753 18.4279 20.0839 18.4279 20.8447C18.4279 21.4025 18.2251 21.859 17.8193 22.2647C17.4136 22.6704 16.9572 22.8733 16.3993 22.8733C15.5878 22.8733 15.0299 22.5183 14.5735 21.8083C14.4213 21.6054 14.3199 21.3011 14.3199 20.9461C14.3199 20.6925 14.1677 20.5404 13.9649 20.5404C13.7113 20.5404 13.6099 20.7432 13.6099 20.8954C13.6099 21.6054 13.9142 22.2647 14.472 22.7212C14.9792 23.2283 15.6385 23.4819 16.3486 23.4819C17.1093 23.4819 17.7686 23.2283 18.2758 22.6705C18.783 22.1633 19.0873 21.504 19.0873 20.7432C19.0873 19.9825 18.8337 19.3739 18.3265 18.8667C17.8193 18.4103 17.16 18.106 16.3993 18.106Z" fill="black"/>
<path d="M16.247 15.9757C16.9063 15.9757 17.3628 16.2293 17.6671 16.7872C17.7178 16.8886 17.8192 17.0915 17.87 17.2944C17.87 17.5479 18.0221 17.7001 18.225 17.7001C18.4278 17.7001 18.58 17.5479 18.58 17.3451C18.58 16.7365 18.2757 16.2293 17.7685 15.925C17.3121 15.5193 16.8049 15.3164 16.1963 15.3164C15.5877 15.3164 15.0298 15.5193 14.5734 15.9757C14.1676 16.4829 13.9141 16.9901 13.9141 17.5987C13.9141 18.2073 14.1169 18.7651 14.5734 19.2216C14.9791 19.678 15.537 19.9316 16.1456 19.9316C16.3992 19.9316 16.5513 19.7795 16.5513 19.5766C16.5513 19.3737 16.3992 19.2216 16.1963 19.2216C15.7399 19.2216 15.3848 19.0694 15.0805 18.7651C14.7762 18.4608 14.6241 18.0551 14.6241 17.5987C14.6241 17.1422 14.7762 16.7365 15.0805 16.4322C15.4863 16.1279 15.8413 15.9757 16.247 15.9757Z" fill="black"/>
<path d="M25.2239 18.7143C25.2239 18.1564 25.1732 17.7507 25.1225 17.4971C24.9703 16.8378 24.666 16.3306 24.2096 15.9756C23.7024 15.5191 23.1952 15.3163 22.5359 15.3163C22.0795 15.3163 21.623 15.4177 21.2173 15.6713C20.8623 15.8234 20.6087 16.077 20.4058 16.3306V13.2876C20.4058 12.7804 19.6958 12.7804 19.6958 13.2876V22.9745C19.6958 23.2281 19.8987 23.3295 20.0508 23.3295C20.3044 23.3295 20.4058 23.1266 20.4058 22.9745V18.9171C20.4058 18.6128 20.4058 18.3593 20.4565 18.1564C20.4565 18.0042 20.4565 17.9028 20.4565 17.8521C20.558 17.2942 20.7608 16.8378 21.1159 16.4827C21.5216 16.1277 21.9273 15.9756 22.5359 15.9756C22.9417 15.9756 23.3474 16.077 23.6517 16.2799C24.1081 16.5842 24.3617 16.9392 24.4632 17.3956C24.5646 17.6999 24.5646 18.2071 24.5646 18.9171V22.9745C24.5646 23.1773 24.7167 23.3295 24.9196 23.3295C25.1732 23.3295 25.2746 23.1266 25.2746 22.9745L25.2239 22.7209V18.7143Z" fill="black"/>
<path d="M33.034 16.4828C32.2226 15.6714 31.259 15.2656 30.1432 15.2656C29.0274 15.2656 28.0131 15.6714 27.2524 16.4828C26.4409 17.2943 26.0352 18.2579 26.0352 19.3737C26.0352 20.4894 26.4409 21.5038 27.2524 22.2645C28.0638 23.076 29.0274 23.4817 30.1939 23.4817C31.3604 23.4817 32.324 23.076 33.0848 22.2645C33.8962 21.4531 34.302 20.4894 34.302 19.323C34.302 18.1565 33.8962 17.2436 33.034 16.4828ZM27.7088 21.8081C27.0495 21.1488 26.6945 20.3373 26.6945 19.3737C26.6945 18.4101 27.0495 17.5986 27.7088 16.8886C28.3681 16.2292 29.1796 15.8742 30.1939 15.8742C31.1068 15.8742 31.969 16.2292 32.6283 16.8886C33.2876 17.5479 33.6426 18.3593 33.6426 19.323C33.6426 20.2866 33.2876 21.1488 32.5776 21.8081C31.9183 22.4674 31.1068 22.8224 30.1432 22.8224C29.2303 22.8224 28.3681 22.4674 27.7088 21.8081Z" fill="black"/>
<path d="M39.0695 15.2656C37.903 15.2656 36.9394 15.6714 36.1786 16.4828C35.4179 17.2943 34.9614 18.2579 34.9614 19.3737C34.9614 20.4894 35.3672 21.4531 36.1279 22.2645V25.5611C36.1279 25.764 36.2801 25.9161 36.4829 25.9161C36.7365 25.9161 36.8379 25.7132 36.8379 25.5611V22.8731C37.4973 23.3296 38.258 23.5324 39.0695 23.5324C40.236 23.5324 41.2503 23.1267 42.011 22.3659C42.8225 21.5545 43.2789 20.6416 43.2789 19.4751C43.2789 18.3086 42.8225 17.345 42.011 16.5335C41.1996 15.6714 40.236 15.2656 39.0695 15.2656ZM36.4829 19.0187C36.3308 19.0187 36.1279 19.1708 36.1279 19.4244V21.1488C35.8236 20.6416 35.6715 20.033 35.6715 19.3737C35.6715 18.4608 36.0265 17.5986 36.6858 16.9393C37.3958 16.2292 38.2073 15.9249 39.1709 15.9249C40.1345 15.9249 40.946 16.28 41.656 16.9393C42.3153 17.5986 42.6704 18.4101 42.6704 19.4244C42.6704 20.388 42.3153 21.1995 41.6053 21.8588C40.946 22.5181 40.1345 22.8731 39.1709 22.8731C38.3087 22.8731 37.548 22.5688 36.8887 21.9602V19.4244C36.8379 19.0694 36.6351 19.0187 36.4829 19.0187Z" fill="black"/>
</svg>
