<svg width="43" height="30" viewBox="0 0 43 30" fill="none" xmlns="http://www.w3.org/2000/svg">
<path d="M42.8567 15.3367L37.1233 8.52837C36.98 8.38503 36.765 8.2417 36.55 8.2417H28.6667V19.7084H0V24.725C0 25.155 0.286667 25.4417 0.716667 25.4417H4.87333C4.80167 25.6567 4.80167 25.9434 4.80167 26.1584C4.80167 28.165 6.37833 29.7417 8.385 29.7417C10.3917 29.7417 11.9683 28.165 11.9683 26.1584C11.9683 25.9434 11.9683 25.6567 11.8967 25.4417H31.605C31.5333 25.6567 31.5333 25.9434 31.5333 26.1584C31.5333 28.165 33.11 29.7417 35.1167 29.7417C37.1233 29.7417 38.7 28.165 38.7 26.1584C38.7 25.9434 38.7 25.6567 38.6283 25.4417H42.2833C42.7133 25.4417 43 25.155 43 24.725V15.8384V15.7667C43 15.6234 42.9283 15.48 42.8567 15.3367ZM40.7783 15.05H35.8333V12.5417H38.6283L40.7783 15.05ZM8.385 28.3084C7.16667 28.3084 6.235 27.3767 6.235 26.1584C6.235 25.8 6.30667 25.4417 6.52167 25.0834C6.88 24.4384 7.59667 24.0084 8.385 24.0084C8.6 24.0084 8.74333 24.0084 8.95833 24.08C9.31667 24.1517 9.675 24.3667 9.89 24.6534C10.0333 24.7967 10.105 24.94 10.2483 25.0834C10.4633 25.4417 10.535 25.8 10.535 26.1584C10.535 27.3767 9.53167 28.3084 8.385 28.3084ZM35.1167 28.3084C33.8983 28.3084 32.9667 27.3767 32.9667 26.1584C32.9667 25.8 33.0383 25.4417 33.2533 25.0834C33.6117 24.4384 34.3283 24.0084 35.1167 24.0084C35.3317 24.0084 35.475 24.0084 35.69 24.08C36.0483 24.1517 36.4067 24.3667 36.6217 24.6534C36.765 24.7967 36.8367 24.94 36.98 25.0834C37.195 25.4417 37.2667 25.8 37.2667 26.1584C37.2667 27.3767 36.335 28.3084 35.1167 28.3084ZM41.5667 24.0084H37.9833C37.9833 23.9367 37.9117 23.9367 37.9117 23.865C37.84 23.7934 37.7683 23.7217 37.6967 23.65C37.625 23.5784 37.625 23.5784 37.5533 23.5067C37.4817 23.435 37.41 23.3634 37.3383 23.3634C37.2667 23.2917 37.2667 23.2917 37.195 23.2917C37.1233 23.22 37.0517 23.22 36.98 23.1484C36.9083 23.1484 36.9083 23.0767 36.8367 23.0767C36.765 23.005 36.6933 23.005 36.6217 22.9334C36.55 22.9334 36.4783 22.8617 36.4783 22.8617C36.4067 22.8617 36.335 22.79 36.1917 22.79C36.12 22.79 36.0483 22.79 36.0483 22.7184C35.9767 22.7184 35.8333 22.6467 35.7617 22.6467C35.69 22.6467 35.69 22.6467 35.6183 22.6467C35.475 22.6467 35.3317 22.6467 35.1883 22.6467C35.045 22.6467 34.9017 22.6467 34.7583 22.6467C34.6867 22.6467 34.6867 22.6467 34.615 22.6467C34.5433 22.6467 34.4 22.6467 34.3283 22.7184C34.2567 22.7184 34.185 22.7184 34.185 22.79C34.1133 22.79 34.0417 22.8617 33.8983 22.8617C33.8267 22.8617 33.755 22.9334 33.755 22.9334C33.6833 23.005 33.6117 23.005 33.54 23.0767C33.4683 23.0767 33.4683 23.1484 33.3967 23.1484C33.325 23.22 33.2533 23.22 33.1817 23.2917C33.11 23.2917 33.11 23.3634 33.0383 23.3634C32.9667 23.435 32.895 23.5067 32.8233 23.5067C32.7517 23.5784 32.7517 23.5784 32.68 23.65C32.6083 23.7217 32.5367 23.7934 32.465 23.865C32.465 23.9367 32.3933 23.9367 32.3933 24.0084H11.2517C11.2517 23.9367 11.18 23.9367 11.18 23.865C11.1083 23.7934 11.0367 23.7217 10.965 23.65C10.8933 23.5784 10.8933 23.5784 10.8217 23.5067C10.75 23.435 10.6783 23.3634 10.6067 23.3634C10.535 23.2917 10.535 23.2917 10.4633 23.2917C10.3917 23.22 10.32 23.22 10.2483 23.1484C10.1767 23.1484 10.1767 23.0767 10.105 23.0767C10.0333 23.005 9.96167 23.005 9.89 22.9334C9.81833 22.9334 9.74667 22.8617 9.74667 22.8617C9.675 22.8617 9.60333 22.79 9.46 22.79C9.38833 22.79 9.31667 22.79 9.31667 22.7184C9.245 22.7184 9.10167 22.6467 9.03 22.6467C8.95833 22.6467 8.95833 22.6467 8.88667 22.6467C8.74333 22.6467 8.6 22.6467 8.45667 22.6467C8.31333 22.6467 8.17 22.6467 8.02667 22.6467C7.955 22.6467 7.955 22.6467 7.88333 22.6467C7.81167 22.6467 7.66833 22.6467 7.59667 22.7184C7.525 22.7184 7.45333 22.7184 7.45333 22.79C7.38167 22.79 7.31 22.8617 7.23833 22.8617C7.16667 22.8617 7.095 22.9334 7.02333 22.9334C6.95167 22.9334 6.88 23.005 6.80833 23.005C6.73667 23.005 6.665 23.0767 6.59333 23.0767C6.52167 23.1484 6.45 23.1484 6.37833 23.22C6.30667 23.2917 6.235 23.2917 6.235 23.3634C6.16333 23.435 6.16333 23.435 6.09167 23.5067C6.02 23.5784 5.94833 23.5784 5.94833 23.65C5.73333 23.7217 5.73333 23.7934 5.66167 23.865C5.59 23.9367 5.59 24.0084 5.51833 24.0084H1.43333V21.1417H29.3833C29.8133 21.1417 30.1 20.855 30.1 20.425V9.67503H36.1917L37.41 11.1084H35.1167C34.6867 11.1084 34.4 11.395 34.4 11.825V15.7667C34.4 16.1967 34.6867 16.4834 35.1167 16.4834H41.5667V24.0084Z" fill="#4E9DD3"/>
<path d="M24.5096 5.805C23.8646 2.43667 20.9263 0 17.4146 0H11.8246C8.38461 0 5.44628 2.43667 4.72961 5.805C3.86961 6.09167 3.22461 6.88 3.22461 7.81167C3.22461 8.385 3.43961 8.88667 3.79794 9.245C3.43961 9.60333 3.22461 10.105 3.22461 10.6783C3.22461 11.61 3.86961 12.47 4.72961 12.685C5.37461 16.0533 8.31294 18.49 11.8246 18.49H17.4146C20.8546 18.49 23.7929 16.0533 24.5096 12.685C25.3696 12.3983 26.0146 11.61 26.0146 10.6783C26.0146 10.105 25.7996 9.60333 25.4413 9.245C25.7996 8.88667 26.0146 8.385 26.0146 7.81167C26.0863 6.88 25.4413 6.09167 24.5096 5.805ZM11.8246 1.43333H17.4146C20.0663 1.43333 22.2879 3.225 23.0046 5.73333H22.7179L22.5746 5.59C22.2879 5.16 21.7863 5.01667 21.2846 5.01667H20.8546C20.3529 5.01667 19.8513 5.23167 19.4929 5.59C19.4213 5.66167 19.2779 5.73333 19.1346 5.73333H18.7046C18.5613 5.73333 18.4179 5.66167 18.3463 5.59C17.9879 5.16 17.4863 5.01667 16.9846 5.01667H16.5546C16.0529 5.01667 15.5513 5.23167 15.1929 5.59C15.1213 5.66167 14.9779 5.73333 14.8346 5.73333H14.4046C14.2613 5.73333 14.1179 5.66167 14.0463 5.59C13.7596 5.16 13.2579 5.01667 12.7563 5.01667H12.3263C11.8246 5.01667 11.3229 5.23167 10.9646 5.59C10.8929 5.66167 10.7496 5.73333 10.6063 5.73333H10.1763C10.0329 5.73333 9.88961 5.66167 9.81794 5.59C9.45961 5.16 8.95794 5.01667 8.45628 5.01667H8.02628C7.52461 5.01667 7.02294 5.23167 6.66461 5.59L6.52128 5.66167H6.30628C6.95128 3.225 9.24461 1.43333 11.8246 1.43333ZM5.37461 7.095H7.09461L7.66794 6.52167C7.81128 6.45 7.88294 6.37833 8.02628 6.37833H8.45628C8.59961 6.37833 8.74294 6.45 8.81461 6.52167C9.17294 6.88 9.67461 7.095 10.1763 7.095H10.6063C11.1079 7.095 11.6096 6.88 11.9679 6.52167C12.0396 6.45 12.1829 6.37833 12.3263 6.37833H12.7563C12.8996 6.37833 13.0429 6.45 13.1146 6.52167C13.4729 6.88 13.9746 7.095 14.4763 7.095H14.9063C15.4079 7.095 15.9096 6.88 16.2679 6.52167C16.3396 6.45 16.4829 6.37833 16.5546 6.37833H16.9846C17.1279 6.37833 17.2713 6.45 17.3429 6.52167C17.7013 6.88 18.2029 7.095 18.7046 7.095H19.1346C19.6363 7.095 20.1379 6.88 20.4963 6.52167C20.5679 6.45 20.7113 6.37833 20.8546 6.37833H21.2846C21.4279 6.37833 21.5713 6.45 21.6429 6.52167L22.2163 7.095H23.9363C24.2946 7.095 24.6529 7.38167 24.6529 7.81167C24.6529 8.24167 24.3663 8.52833 23.9363 8.52833H5.37461C5.01628 8.52833 4.65794 8.24167 4.65794 7.81167C4.65794 7.38167 5.01628 7.095 5.37461 7.095ZM17.4863 17.0567H11.8963C9.24461 17.0567 7.02294 15.265 6.30628 12.7567H23.0763C22.3596 15.3367 20.1379 17.0567 17.4863 17.0567ZM23.9363 11.395H5.37461C5.01628 11.395 4.65794 11.1083 4.65794 10.6783C4.65794 10.2483 4.94461 9.96167 5.37461 9.96167H23.8646C24.2229 9.96167 24.5813 10.2483 24.5813 10.6783C24.5813 11.1083 24.2946 11.395 23.9363 11.395Z" fill="#4E9DD3"/>
</svg>
