<svg width="37" height="33" viewBox="0 0 37 33" fill="none" xmlns="http://www.w3.org/2000/svg">
<g clip-path="url(#clip0)">
<path d="M27.1194 13.0282C26.5588 10.0217 23.966 7.87415 20.9527 7.87415H16.0474C13.0342 7.87415 10.4414 10.0932 9.88076 13.0282C9.10992 13.2429 8.54932 13.9587 8.54932 14.8177C8.54932 15.3188 8.75954 15.7483 9.03985 16.1062C8.75954 16.4642 8.54932 16.8937 8.54932 17.3948C8.54932 18.2538 9.10992 18.9696 9.88076 19.1843C10.4414 22.1908 13.0342 24.3384 16.0474 24.3384H20.9527C23.966 24.3384 26.5588 22.1193 27.1194 19.1843C27.8902 18.9696 28.4508 18.2538 28.4508 17.3948C28.4508 16.8937 28.2406 16.4642 27.9603 16.1062C28.2406 15.7483 28.4508 15.3188 28.4508 14.8177C28.4508 13.9587 27.8902 13.2429 27.1194 13.0282ZM16.0474 9.09106H20.9527C23.2652 9.09106 25.2273 10.6659 25.858 12.885H25.6478L25.5076 12.7418C25.1573 12.3839 24.7368 12.2407 24.3164 12.2407H23.966C23.5455 12.2407 23.1251 12.3839 22.7747 12.7418C22.7046 12.8134 22.5645 12.885 22.4944 12.885H22.144C22.0039 12.885 21.9338 12.8134 21.8637 12.7418C21.5133 12.3839 21.0929 12.2407 20.6724 12.2407H20.322C19.9016 12.2407 19.4811 12.3839 19.1308 12.7418C19.0607 12.8134 18.9205 12.885 18.8505 12.885H18.5001C18.3599 12.885 18.2898 12.8134 18.2198 12.7418C17.8694 12.3839 17.4489 12.2407 17.0285 12.2407H16.6781C16.2576 12.2407 15.8372 12.3839 15.4868 12.7418C15.4167 12.8134 15.2766 12.885 15.2065 12.885H14.8561C14.716 12.885 14.6459 12.8134 14.5758 12.7418C14.2255 12.3839 13.805 12.2407 13.3845 12.2407H13.0342C12.6137 12.2407 12.1933 12.3839 11.8429 12.7418L11.7027 12.885H11.2122C11.7728 10.7375 13.7349 9.09106 16.0474 9.09106ZM10.4414 14.1735H11.913L12.4035 13.6724C12.4736 13.6008 12.6137 13.6008 12.7539 13.6008H13.1042C13.2444 13.6008 13.3145 13.6724 13.3845 13.744C13.7349 14.1019 14.1554 14.2451 14.5758 14.2451H14.9262C15.3467 14.2451 15.7671 14.1019 16.1175 13.744C16.1876 13.6724 16.3277 13.6008 16.3978 13.6008H16.8183C16.9584 13.6008 17.0285 13.6724 17.0986 13.744C17.4489 14.1019 17.8694 14.2451 18.2898 14.2451H18.6402C19.0607 14.2451 19.4811 14.1019 19.8315 13.744C19.9016 13.6724 20.0417 13.6008 20.1118 13.6008H20.4622C20.6023 13.6008 20.6724 13.6724 20.7425 13.744C21.0929 14.1019 21.5133 14.2451 21.9338 14.2451H22.4243C22.8448 14.2451 23.2652 14.1019 23.6156 13.744C23.6857 13.6008 23.8258 13.6008 23.8959 13.6008H24.2463C24.3864 13.6008 24.4565 13.6724 24.5266 13.744L25.0171 14.2451H26.6289C26.9792 14.2451 27.2595 14.5314 27.2595 14.8893C27.2595 15.2472 26.9792 15.5336 26.6289 15.5336H10.4414C10.091 15.5336 9.81068 15.2472 9.81068 14.8893C9.81068 14.5314 10.091 14.1735 10.4414 14.1735ZM20.9527 23.1214H16.0474C13.7349 23.1214 11.7728 21.5466 11.1421 19.3275H25.788C25.2273 21.475 23.2652 23.1214 20.9527 23.1214ZM26.6289 18.039H10.4414C10.091 18.039 9.81068 17.7527 9.81068 17.3948C9.81068 17.0368 10.091 16.7505 10.4414 16.7505H26.6289C26.9792 16.7505 27.2595 17.0368 27.2595 17.3948C27.2595 17.7527 26.9092 18.039 26.6289 18.039Z" fill="#4E9DD3"/>
<path d="M8.54841 1.43167C13.0333 1.43167 17.3079 5.72668 17.5181 5.94143C17.7984 6.22777 18.1488 6.29935 18.4291 6.29935C18.7094 6.29935 19.0598 6.15618 19.3401 5.94143C19.4102 5.94143 21.5124 3.79393 24.3855 2.50542C25.8571 1.86117 27.1886 1.50325 28.4499 1.50325C30.2719 1.50325 31.8836 2.21909 33.2852 3.65076C35.0371 5.36876 35.7378 7.44469 35.5276 9.80694C34.7567 18.5401 21.6526 28.8482 18.4291 31.282C17.0276 30.2082 13.8041 27.7028 10.5105 24.4816C4.97455 18.8265 1.82114 13.8156 1.40068 9.73536C1.26053 7.3731 1.96129 5.36876 3.64311 3.57918C5.18478 2.00434 6.93667 1.43167 8.54841 1.43167ZM8.54841 0C6.30599 0 4.34387 0.859002 2.66205 2.57701C0.629851 4.72451 -0.211059 7.08677 -0.000831231 9.87853C0.419623 14.3167 3.64311 19.5423 9.59955 25.4121C13.0333 28.7766 16.3969 31.4252 17.6583 32.3558L18.4992 33L19.3401 32.3558C23.2643 29.4208 36.1583 19.1128 36.9992 9.87853C37.2795 7.01518 36.3685 4.58135 34.3363 2.57701C32.6545 0.859002 30.6924 0 28.4499 0C26.9783 0 25.4367 0.357918 23.8249 1.14534C22.1431 1.93275 20.4613 3.00651 18.8495 4.50976H18.7795L18.4291 4.86768C17.7984 4.15184 13.3836 0 8.54841 0Z" fill="#4E9DD3"/>
</g>
<defs>
<clipPath id="clip0">
<rect width="37" height="33" fill="white"/>
</clipPath>
</defs>
</svg>
