<svg width="25" height="33" viewBox="0 0 25 33" fill="none" xmlns="http://www.w3.org/2000/svg">
<path d="M18.9428 6.3066C18.8739 6.19172 18.7763 6.09663 18.6596 6.03061C18.5428 5.96459 18.4108 5.92989 18.2766 5.92993C18.1423 5.92996 18.0104 5.96471 17.8936 6.03079C17.7769 6.09686 17.6793 6.192 17.6105 6.3069C16.4541 8.28664 15.4049 10.3267 14.4674 12.4182C12.9297 8.2443 11.0234 4.21462 8.77091 0.376648L8.76956 0.374964C8.73833 0.324581 8.70138 0.277948 8.65945 0.235985C8.64935 0.225672 8.63876 0.21536 8.62779 0.205769C8.58552 0.165619 8.53874 0.130472 8.48837 0.101028L8.48633 0.100375C8.43536 0.0724176 8.38135 0.0503438 8.32536 0.0345812C8.31122 0.0302156 8.29742 0.0265031 8.28294 0.0231687C8.16619 -0.0077229 8.04338 -0.0077229 7.92663 0.0231687C7.91215 0.0266062 7.89836 0.0300437 7.88418 0.0345812C7.82867 0.0501841 7.77511 0.0720265 7.72455 0.0996877L7.7211 0.101028C7.67073 0.130464 7.62394 0.165611 7.58168 0.205769C7.57057 0.215497 7.56012 0.225569 7.55002 0.235985C7.50809 0.277956 7.47113 0.324588 7.43987 0.374964L7.43853 0.376648C7.13505 0.882856 0 12.8705 0 20.754C0 29.783 4.18678 33 8.10479 33C9.13764 33 10.1573 32.7691 11.0888 32.3242C12.0202 31.8792 12.8397 31.2317 13.4867 30.4293C14.0089 31.2198 14.7201 31.8686 15.5561 32.3173C16.3922 32.7661 17.3271 33.0006 18.2767 33C21.5269 33 25 30.3514 25 22.9171C25 16.4793 19.19 6.71882 18.9428 6.3066ZM8.10479 31.4518C7.73669 31.3349 6.41217 29.2191 6.41217 20.7539C6.41217 15.9497 7.38442 9.3359 8.10479 5.09473C8.82553 9.33521 9.79775 15.9481 9.79775 20.7539C9.79775 29.2204 8.4732 31.3353 8.10479 31.4518ZM1.55185 20.7539C1.55185 16.081 4.35783 9.62359 6.47145 5.42168C5.75512 9.70481 4.86032 16.0041 4.86032 20.7539C4.86032 24.4757 5.1112 28.6716 6.071 31.0595C3.23843 29.8884 1.55185 26.1612 1.55185 20.7539ZM10.1385 31.0595C11.0987 28.6717 11.3496 24.4759 11.3496 20.754C11.3496 16.0043 10.4548 9.70533 9.73847 5.42219C11.2952 8.45083 12.5951 11.604 13.6245 14.8487L13.6248 14.8503C13.9417 15.8925 14.1982 16.9521 14.393 18.0237C14.396 18.0411 14.399 18.0592 14.4021 18.0767C14.44 18.2946 14.4732 18.5077 14.5024 18.7175C14.5065 18.7471 14.5112 18.7766 14.5153 18.8062C14.5419 19.0021 14.5638 19.1939 14.5826 19.3825C14.5863 19.4195 14.5914 19.4567 14.5947 19.4933C14.6115 19.6749 14.6237 19.8512 14.6338 20.0257C14.6361 20.0647 14.6399 20.1043 14.6419 20.1426C14.652 20.3514 14.6577 20.5555 14.6577 20.7539C14.6577 20.958 14.6554 21.1595 14.6508 21.3585C14.5784 24.3462 13.968 26.8401 12.8737 28.5991C12.8648 28.6162 12.8568 28.6338 12.8498 28.6518C12.2226 29.7186 11.2738 30.5611 10.1385 31.0594V31.0595ZM18.2767 31.4531C16.6716 31.4531 15.3518 30.6236 14.4378 29.0499C15.3834 27.3684 16.027 25.084 16.1749 22.0882C16.1783 22.0201 16.1809 21.9519 16.1839 21.8835C16.1991 21.5162 16.2095 21.1423 16.2095 20.7539C16.2095 20.5259 16.2026 20.2916 16.1904 20.0519C16.1849 19.9438 16.1752 19.8337 16.1675 19.7243C16.1584 19.5967 16.1499 19.4699 16.1378 19.3389C16.1237 19.1885 16.1052 19.0361 16.087 18.8837C16.0762 18.7948 16.0663 18.7065 16.0543 18.6158C16.029 18.4278 16.0001 18.2385 15.9691 18.0482C15.9603 17.9938 15.9522 17.9401 15.9428 17.8854C15.9041 17.6571 15.8616 17.4272 15.8152 17.1958L15.8051 17.1455C15.6408 16.3304 15.433 15.5006 15.1908 14.6657C16.0995 12.4787 17.1297 10.3438 18.2767 8.27106C19.8083 11.0459 23.4482 18.1436 23.4482 22.9171C23.4482 28.1824 21.4666 31.4531 18.2767 31.4531Z" fill="#4E9DD3"/>
</svg>
